<?xml version="1.0" standalone="no"?>
<!DOCTYPE svg PUBLIC "-//W3C//DTD SVG 20010904//EN"
 "http://www.w3.org/TR/2001/REC-SVG-20010904/DTD/svg10.dtd">
<svg version="1.0" xmlns="http://www.w3.org/2000/svg"
 width="128.000000pt" height="128.000000pt" viewBox="0 0 128.000000 128.000000"
 preserveAspectRatio="xMidYMid meet">
<metadata>
Created by potrace 1.14, written by Peter Selinger 2001-2017
</metadata>
<g transform="translate(0.000000,128.000000) scale(0.100000,-0.100000)"
fill="#000000" stroke="none">
<path d="M230 1167 c-16 -4 -35 -17 -41 -29 -8 -15 -12 -138 -12 -420 0 -450
-5 -421 81 -453 26 -10 74 -30 107 -45 33 -15 106 -46 162 -70 115 -48 120
-48 242 7 31 14 65 29 76 33 11 4 36 15 55 23 19 8 64 27 100 42 108 44 100 9
100 460 0 222 -4 404 -9 418 -6 14 -20 29 -33 33 -30 10 -789 11 -828 1z m544
-157 c26 -6 65 -19 86 -30 68 -35 70 -43 70 -246 0 -178 -1 -183 -24 -211 -20
-24 -93 -59 -146 -70 -38 -8 -168 -9 -218 -1 -72 11 -148 45 -172 76 -18 22
-20 41 -20 204 0 103 4 187 10 198 40 74 255 116 414 80z"/>
<path d="M549 963 c-68 -14 -135 -43 -132 -58 2 -12 60 -43 94 -51 53 -13 197
-13 245 0 64 17 109 38 108 51 -2 12 -50 39 -89 50 -64 17 -166 21 -226 8z"/>
<path d="M402 777 l3 -61 51 -17 c72 -25 98 -29 185 -30 81 0 153 13 209 37
35 16 35 16 32 74 l-4 59 -51 -19 c-64 -23 -113 -31 -197 -31 -75 1 -95 4
-173 30 l-58 19 3 -61z"/>
<path d="M400 624 c0 -58 5 -66 46 -87 105 -54 285 -53 393 2 40 21 41 23 41
71 0 28 -3 50 -7 50 -5 0 -26 -7 -48 -14 -60 -21 -112 -29 -190 -28 -74 0
-200 25 -222 43 -10 9 -13 2 -13 -37z"/>
</g>
</svg>
